<svg width="18" height="18" viewBox="0 0 18 18" fill="none" xmlns="http://www.w3.org/2000/svg">
<g clip-path="url(#clip0_10_21)">
<path d="M0.437988 9.00008C0.437988 7.44748 0.82044 6.01477 1.58531 4.70191C2.35019 3.38905 3.38907 2.35019 4.70191 1.58531C6.01477 0.820423 7.4475 0.437988 9.00008 0.437988C10.5527 0.437988 11.9854 0.820423 13.2983 1.58531C14.6111 2.35019 15.65 3.38905 16.4149 4.70191C17.1797 6.01477 17.5622 7.44748 17.5622 9.00008C17.5622 10.5527 17.1797 11.9854 16.4149 13.2983C15.65 14.6111 14.6111 15.65 13.2983 16.4149C11.9854 17.1797 10.5527 17.5622 9.00008 17.5622C7.4475 17.5622 6.01477 17.1797 4.70191 16.4149C3.38907 15.65 2.35019 14.6111 1.58531 13.2983C0.82044 11.9854 0.437988 10.5527 0.437988 9.00008ZM1.8593 9.00008C1.8593 10.781 2.45864 12.3507 3.65733 13.7092C4.20531 12.6361 5.07294 11.6144 6.26021 10.644C7.4475 9.67363 8.60622 9.06287 9.73642 8.81171C9.56518 8.41216 9.39966 8.05255 9.23982 7.73289C7.27626 8.36078 5.15286 8.67472 2.86962 8.67472C2.42439 8.67472 2.09333 8.66902 1.87642 8.6576C1.87642 8.70327 1.87358 8.76034 1.86786 8.82884C1.86216 8.89733 1.8593 8.95441 1.8593 9.00008ZM2.08191 7.23629C2.33307 7.25912 2.7041 7.27054 3.19498 7.27054C5.10149 7.27054 6.91093 7.01367 8.62335 6.49995C7.75573 4.95877 6.80248 3.67446 5.76361 2.64701C4.86175 3.10366 4.0883 3.73725 3.44328 4.54779C2.79828 5.35833 2.34449 6.25451 2.08191 7.23629ZM4.63341 14.6339C5.92345 15.6386 7.379 16.1409 9.00008 16.1409C9.84488 16.1409 10.684 15.981 11.5173 15.6614C11.289 13.7092 10.8438 11.8199 10.1816 9.99328C9.13137 10.2216 8.07253 10.7981 7.00511 11.7228C5.93771 12.6475 5.14714 13.6179 4.63341 14.6339ZM7.25341 2.09903C8.25804 3.13791 9.18845 4.43363 10.0447 5.98622C11.5973 5.3355 12.7674 4.50784 13.5551 3.50322C12.2308 2.40727 10.7125 1.8593 9.00008 1.8593C8.41786 1.8593 7.83564 1.93921 7.25341 2.09903ZM10.6611 7.20204C10.8324 7.56735 11.0265 8.0297 11.2433 8.5891C12.0882 8.50918 13.0071 8.46923 14.0003 8.46923C14.7082 8.46923 15.4102 8.48635 16.1066 8.5206C16.0153 6.968 15.4559 5.58667 14.4284 4.37655C13.6864 5.48392 12.4306 6.42575 10.6611 7.20204ZM11.6715 9.78779C12.2537 11.4774 12.6475 13.2126 12.853 14.9935C13.7549 14.4113 14.4912 13.6636 15.062 12.7503C15.6329 11.837 15.9753 10.8495 16.0895 9.78779C15.2561 9.73072 14.4969 9.70217 13.812 9.70217C13.1841 9.70217 12.4706 9.73072 11.6715 9.78779Z" fill="white"/>
</g>
<defs>
<clipPath id="clip0_10_21">
<rect width="17.1242" height="17.1242" fill="white" transform="translate(0.437988 0.437988)"/>
</clipPath>
</defs>
</svg>
