<svg width="18" height="11" viewBox="0 0 18 11" fill="none" xmlns="http://www.w3.org/2000/svg">
<path d="M7.34778 5.07683C7.34778 5.07683 8.968 4.9581 8.968 3.08275C8.968 1.20726 7.64245 0.291992 5.96336 0.291992H0.43811V10.7725H5.96336C5.96336 10.7725 9.33632 10.8776 9.33632 7.67911C9.33632 7.67915 9.48337 5.07683 7.34778 5.07683V5.07683ZM5.56566 2.15478H5.96336C5.96336 2.15478 6.7144 2.15478 6.7144 3.24523C6.7144 4.33554 6.27271 4.49362 5.77171 4.49362H2.8726V2.15478H5.56566V2.15478ZM5.80722 8.90975H2.8726V6.10897H5.96336C5.96336 6.10897 7.08275 6.09449 7.08275 7.54829C7.08275 8.77416 6.24667 8.90049 5.80722 8.90975V8.90975ZM13.8347 2.95854C9.75141 2.95854 9.75503 6.98545 9.75503 6.98545C9.75503 6.98545 9.47486 10.9917 13.8347 10.9917C13.8347 10.9917 17.4679 11.1966 17.4679 8.20478H15.5994C15.5994 8.20478 15.6618 9.33144 13.8971 9.33144C13.8971 9.33144 12.0283 9.45506 12.0283 7.50807H17.5303C17.5303 7.50804 18.1323 2.95854 13.8347 2.95854ZM12.0077 6.10897C12.0077 6.10897 12.2359 4.49359 13.8763 4.49359C15.5163 4.49359 15.4957 6.10897 15.4957 6.10897H12.0077ZM15.931 2.20002H11.5503V0.909427H15.931V2.20002Z" fill="white"/>
</svg>
