<svg width="18" height="18" viewBox="0 0 18 18" fill="none" xmlns="http://www.w3.org/2000/svg">
<path d="M6.14639 9.00008C6.14639 7.42391 7.42379 6.14582 8.99996 6.14582C10.5761 6.14582 11.8542 7.42391 11.8542 9.00008C11.8542 10.5763 10.5761 11.8543 8.99996 11.8543C7.42379 11.8543 6.14639 10.5763 6.14639 9.00008ZM4.60341 9.00008C4.60341 11.4283 6.57173 13.3966 8.99996 13.3966C11.4282 13.3966 13.3965 11.4283 13.3965 9.00008C13.3965 6.57185 11.4282 4.60354 8.99996 4.60354C6.57173 4.60354 4.60341 6.57185 4.60341 9.00008ZM12.5431 4.42925C12.5431 4.99637 13.003 5.45698 13.5708 5.45698C14.1379 5.45698 14.5985 4.99637 14.5985 4.42925C14.5985 3.86213 14.1386 3.40221 13.5708 3.40221C13.003 3.40221 12.5431 3.86213 12.5431 4.42925ZM5.54054 15.9694C4.70577 15.9314 4.25208 15.7924 3.95054 15.6748C3.55079 15.5192 3.26585 15.3338 2.96569 15.0343C2.66622 14.7349 2.48018 14.4499 2.32526 14.0502C2.20769 13.7487 2.06868 13.295 2.03064 12.4602C1.98914 11.5576 1.98084 11.2865 1.98084 9.00008C1.98084 6.71363 1.98983 6.44321 2.03064 5.53997C2.06868 4.7052 2.20838 4.2522 2.32526 3.94997C2.48087 3.55022 2.66622 3.26528 2.96569 2.96512C3.26516 2.66565 3.5501 2.47961 3.95054 2.32469C4.25208 2.20712 4.70577 2.06811 5.54054 2.03007C6.44309 1.98857 6.7142 1.98027 8.99996 1.98027C11.2864 1.98027 11.5568 1.98926 12.4601 2.03007C13.2948 2.06811 13.7478 2.20781 14.0501 2.32469C14.4498 2.47961 14.7348 2.66565 15.0349 2.96512C15.3344 3.26459 15.5197 3.55022 15.6753 3.94997C15.7929 4.25151 15.9319 4.7052 15.97 5.53997C16.0115 6.44321 16.0198 6.71363 16.0198 9.00008C16.0198 11.2858 16.0115 11.557 15.97 12.4602C15.9319 13.295 15.7922 13.7487 15.6753 14.0502C15.5197 14.4499 15.3344 14.7349 15.0349 15.0343C14.7355 15.3338 14.4498 15.5192 14.0501 15.6748C13.7485 15.7924 13.2948 15.9314 12.4601 15.9694C11.5575 16.0109 11.2864 16.0192 8.99996 16.0192C6.7142 16.0192 6.44309 16.0109 5.54054 15.9694V15.9694ZM5.47 0.489859C4.55846 0.531355 3.93601 0.675901 3.39172 0.887533C2.82875 1.10608 2.35154 1.39932 1.87503 1.87515C1.3992 2.35097 1.10596 2.82818 0.887411 3.39184C0.675779 3.93614 0.531233 4.55858 0.489737 5.47012C0.447549 6.38304 0.437866 6.6749 0.437866 9.00008C0.437866 11.3253 0.447549 11.6171 0.489737 12.53C0.531233 13.4416 0.675779 14.064 0.887411 14.6083C1.10596 15.1713 1.39851 15.6492 1.87503 16.125C2.35085 16.6008 2.82806 16.8934 3.39172 17.1126C3.93671 17.3243 4.55846 17.4688 5.47 17.5103C6.38361 17.5518 6.67478 17.5622 8.99996 17.5622C11.3258 17.5622 11.617 17.5525 12.5299 17.5103C13.4415 17.4688 14.0639 17.3243 14.6082 17.1126C15.1712 16.8934 15.6484 16.6008 16.1249 16.125C16.6007 15.6492 16.8933 15.1713 17.1125 14.6083C17.3241 14.064 17.4694 13.4416 17.5102 12.53C17.5517 11.6164 17.5614 11.3253 17.5614 9.00008C17.5614 6.6749 17.5517 6.38304 17.5102 5.47012C17.4687 4.55858 17.3241 3.93614 17.1125 3.39184C16.8933 2.82887 16.6007 2.35166 16.1249 1.87515C15.6491 1.39932 15.1712 1.10608 14.6089 0.887533C14.0639 0.675901 13.4415 0.530664 12.5306 0.489859C11.6177 0.448362 11.3258 0.437988 9.00065 0.437988C6.67478 0.437988 6.38361 0.447671 5.47 0.489859" fill="white"/>
</svg>
