<svg width="18" height="18" viewBox="0 0 18 18" fill="none" xmlns="http://www.w3.org/2000/svg">
<path d="M0.437866 2.42691C0.437866 1.85033 0.630712 1.37466 1.01639 0.999901C1.40206 0.625124 1.90346 0.437744 2.52054 0.437744C3.12661 0.437744 3.61696 0.622235 3.99163 0.991252C4.3773 1.37179 4.57015 1.86763 4.57015 2.4788C4.57015 3.03231 4.38283 3.49356 4.00816 3.86257C3.62249 4.24311 3.11559 4.43338 2.48748 4.43338H2.47095C1.86488 4.43338 1.37452 4.24311 0.999857 3.86257C0.625191 3.48204 0.437866 3.00348 0.437866 2.42691ZM0.652745 17.5619V6.00742H4.32221V17.5619H0.652745ZM6.3553 17.5619H10.0248V11.1101C10.0248 10.7065 10.0688 10.3951 10.157 10.176C10.3113 9.78395 10.5454 9.45242 10.8595 9.18144C11.1735 8.91045 11.5675 8.77496 12.0413 8.77496C13.2755 8.77496 13.8926 9.64557 13.8926 11.3868V17.5619H17.5621V10.9371C17.5621 9.23044 17.1764 7.93605 16.405 7.05389C15.6336 6.17174 14.6144 5.73066 13.3471 5.73066C11.9256 5.73066 10.8182 6.37066 10.0248 7.65065V7.68524H10.0082L10.0248 7.65065V6.00742H6.3553C6.37733 6.37642 6.38835 7.52379 6.38835 9.44955C6.38835 11.3753 6.37733 14.0794 6.3553 17.5619Z" fill="white"/>
</svg>
